<?xml version="1.0" encoding="UTF-8"?>
<svg data-bbox="0 0.12 197.84 34.74" viewBox="0 0 197.87 34.89" xmlns="http://www.w3.org/2000/svg" data-type="color">
    <g>
        <path d="M51.82 34.86a61.58 61.58 0 01-11.93-1.54l.11-.49a61.33 61.33 0 0011.83 1.53zm12-.78l-.08-.5a71.15 71.15 0 0011.59-2.89l.16.48a73.19 73.19 0 01-11.67 2.91zm133.63-3.57c-1.61-2.45-3.3-4.78-5-6.93l.39-.31c1.72 2.16 3.42 4.51 5 7zm-169-1a73.12 73.12 0 01-10.59-5.72l.28-.42a73 73 0 0010.51 5.68zm58.09-3.05l-.2-.46a103.43 103.43 0 0010.33-6l.27.42a103.32 103.32 0 01-10.38 6.07zM8.33 16.5A66.2 66.2 0 010 7.77l.4-.3a65.94 65.94 0 008.26 8.66zm176-1.66a59.49 59.49 0 00-9.54-7.15l.25-.43a59.67 59.67 0 019.63 7.21zm-77.32-1l-.26-.43a118.47 118.47 0 0110.6-5.68l.21.45a118.66 118.66 0 00-10.56 5.7zm21.64-10.02l-.15-.48A71.77 71.77 0 01140.21.61l.07.5a71.83 71.83 0 00-11.63 2.71zm35.25-1a50.47 50.47 0 00-11.71-2.2v-.5a50.89 50.89 0 0111.82 2.2z" fill="#231f20" data-color="1"/>
    </g>
</svg>
