<?xml version="1.0" encoding="UTF-8"?>
<svg data-bbox="0 -0.005 24.001 24.005" viewBox="0 0 24 24" xmlns="http://www.w3.org/2000/svg" data-type="shape">
    <g>
        <path d="M23.24 24H.76a.74.74 0 01-.76-.76V.76A.75.75 0 01.5.05a.77.77 0 01.83.22l3.09 3.65 3-3.64A.72.72 0 018 0a.69.69 0 01.57.24L12 4 15.55.24a.7.7 0 01.58-.24.76.76 0 01.55.28l2.9 3.62L22.67.27A.75.75 0 0124 .76v22.48a.74.74 0 01-.76.76zM1.51 22.49h21V2.79l-2.38 2.78a.78.78 0 01-.58.27.79.79 0 01-.55-.28L16.05 1.9l-3.51 3.7a.76.76 0 01-.55.24.77.77 0 01-.55-.24L8 1.9 5 5.56a.79.79 0 01-.58.28.76.76 0 01-.58-.27L1.51 2.8z"/>
        <path d="M18 10.23H6a.75.75 0 110-1.5h12a.75.75 0 010 1.5z"/>
        <path d="M18 14.78H6a.75.75 0 010-1.5h12a.75.75 0 010 1.5z"/>
        <path d="M18 19.33H6a.75.75 0 110-1.5h12a.75.75 0 010 1.5z"/>
    </g>
</svg>
