<?xml version="1.0" encoding="UTF-8"?>
<svg data-bbox="0.199 0.052 23.751 23.948" viewBox="0 0 24 24" xmlns="http://www.w3.org/2000/svg" data-type="shape">
    <g>
        <path d="M23.2 19H4.11a.75.75 0 010-1.5H23.2a.75.75 0 110 1.5z"/>
        <path d="M4.11 19a.75.75 0 01-.47-1.33l6.24-5a.75.75 0 011 .12.74.74 0 01-.12 1.05l-6.23 5a.76.76 0 01-.42.16z"/>
        <path d="M10.35 24a.74.74 0 01-.47-.16l-6.24-4.97a.75.75 0 01.93-1.17l6.24 4.93a.76.76 0 01.13 1.06.74.74 0 01-.59.31z"/>
        <path d="M19.89 6.47H.8A.75.75 0 01.8 5h19.09a.75.75 0 010 1.5z"/>
        <path d="M13.65 11.44a.77.77 0 01-.59-.28.76.76 0 01.12-1.06l6.24-5a.75.75 0 11.94 1.18l-6.25 5a.72.72 0 01-.46.16z"/>
        <path d="M19.89 6.47a.76.76 0 01-.47-.16l-6.24-4.94a.76.76 0 01-.12-1.06.75.75 0 011-.12l6.25 4.94a.75.75 0 01-.47 1.34z"/>
    </g>
</svg>
