<?xml version="1.0" encoding="UTF-8"?>
<svg data-bbox="0 0 24 24" viewBox="0 0 24 24" xmlns="http://www.w3.org/2000/svg" data-type="shape">
    <g>
        <path d="M22 1.5a.5.5 0 01.5.5v20a.5.5 0 01-.5.5H2a.5.5 0 01-.5-.5V2a.5.5 0 01.5-.5h20M22 0H2a2 2 0 00-2 2v20a2 2 0 002 2h20a2 2 0 002-2V2a2 2 0 00-2-2z"/>
        <path d="M17.29 7.58H6.71a.75.75 0 110-1.5h10.58a.75.75 0 010 1.5z"/>
        <path d="M17.29 12.75H6.71a.75.75 0 010-1.5h10.58a.75.75 0 010 1.5z"/>
        <path d="M17.29 17.92H6.71a.75.75 0 010-1.5h10.58a.75.75 0 010 1.5z"/>
    </g>
</svg>
