<?xml version="1.0" encoding="UTF-8"?>
<svg data-bbox="-0.026 -0.028 24.023 24.028" viewBox="0 0 24 24" xmlns="http://www.w3.org/2000/svg" data-type="shape">
    <g>
        <path d="M22.41 11.26L20 22.5H4L1.59 11.26h20.82m.48-1.5H1.11A1.11 1.11 0 000 11.11l2.58 12A1.12 1.12 0 003.7 24h16.6a1.12 1.12 0 001.09-.88l2.58-12a1.11 1.11 0 00-1.08-1.35z"/>
        <path d="M8 20.14a.75.75 0 01-.75-.75v-5a.75.75 0 011.5 0v5a.75.75 0 01-.75.75z"/>
        <path d="M12 20.14a.75.75 0 01-.75-.75v-5a.75.75 0 111.5 0v5a.75.75 0 01-.75.75z"/>
        <path d="M16 20.14a.75.75 0 01-.75-.75v-5a.75.75 0 011.5 0v5a.75.75 0 01-.75.75z"/>
        <path d="M20.08 8.16a.76.76 0 01-.5-.19l-7.1-6.36a1 1 0 00-1 0L4.42 8a.75.75 0 01-1.06-.06.75.75 0 01.06-1.06l7.1-6.39a2.43 2.43 0 013 0l7.1 6.36a.75.75 0 01.06 1.06.77.77 0 01-.6.25z"/>
    </g>
</svg>
