<?xml version="1.0" encoding="UTF-8"?>
<svg data-bbox="-0.001 0 24.021 24" viewBox="0 0 24 24" xmlns="http://www.w3.org/2000/svg" data-type="color">
    <g>
        <path d="M5.27 7.14a3.57 3.57 0 113.57-3.57 3.57 3.57 0 01-3.57 3.57zm0-5.64a2.07 2.07 0 102.07 2.07A2.07 2.07 0 005.27 1.5z" fill="#000000" data-color="1"/>
        <path d="M.77 11.64a.75.75 0 01-.77-.75 5.25 5.25 0 0110-2.32.75.75 0 11-1.34.66 3.75 3.75 0 00-7.12 1.66.76.76 0 01-.77.75z" fill="#000000" data-color="1"/>
        <path d="M18.77 7.14a3.57 3.57 0 113.57-3.57 3.57 3.57 0 01-3.57 3.57zm0-5.64a2.07 2.07 0 102.07 2.07 2.07 2.07 0 00-2.07-2.07z" fill="#000000" data-color="1"/>
        <path d="M23.27 11.69a.74.74 0 01-.75-.75 3.75 3.75 0 00-7-1.83.74.74 0 01-1 .29.75.75 0 01-.29-1A5.25 5.25 0 0124 10.94a.75.75 0 01-.73.75z" fill="#000000" data-color="1"/>
        <path d="M12 13.26a3.57 3.57 0 113.57-3.57A3.57 3.57 0 0112 13.26zm0-5.64a2.07 2.07 0 102.07 2.07A2.07 2.07 0 0012 7.62z" fill="#000000" data-color="1"/>
        <path d="M7.52 17a4.5 4.5 0 119 0" fill="#ffffff" data-color="2"/>
        <path d="M16.52 17.76a.74.74 0 01-.75-.75 3.75 3.75 0 00-7.5 0 .75.75 0 01-1.5 0 5.25 5.25 0 1110.5 0 .75.75 0 01-.75.75z" fill="#000000" data-color="1"/>
        <path d="M7.52 24a.74.74 0 01-.75-.75V17a.75.75 0 011.5 0v6.24a.75.75 0 01-.75.76z" fill="#000000" data-color="1"/>
        <path d="M16.52 24a.74.74 0 01-.75-.75V17a.75.75 0 011.5 0v6.24a.75.75 0 01-.75.76z" fill="#000000" data-color="1"/>
        <path d="M.77 16.14a.75.75 0 01-.77-.75v-4.5a.74.74 0 01.75-.75.75.75 0 01.75.75v4.5a.76.76 0 01-.73.75z" fill="#000000" data-color="1"/>
        <path d="M23.27 16.54a.75.75 0 01-.75-.75v-4.85a.75.75 0 011.5 0v4.85a.76.76 0 01-.75.75z" fill="#000000" data-color="1"/>
    </g>
</svg>
