<?xml version="1.0" encoding="UTF-8"?>
<svg data-bbox="0 0 24 24" viewBox="0 0 24 24" xmlns="http://www.w3.org/2000/svg" data-type="shape">
    <g>
        <path d="M22 1.5a.5.5 0 01.5.5v20a.5.5 0 01-.5.5H2a.5.5 0 01-.5-.5V2a.5.5 0 01.5-.5h20M22 0H2a2 2 0 00-2 2v20a2 2 0 002 2h20a2 2 0 002-2V2a2 2 0 00-2-2z"/>
        <path d="M17.86 7.58h-7.44a.75.75 0 010-1.5h7.44a.75.75 0 010 1.5z"/>
        <path d="M17.86 12.75h-7.44a.75.75 0 010-1.5h7.44a.75.75 0 010 1.5z"/>
        <path d="M17.86 17.92h-7.44a.75.75 0 010-1.5h7.44a.75.75 0 010 1.5z"/>
        <path d="M6.14 7.58a.75.75 0 01-.53-.22.77.77 0 01-.22-.53.72.72 0 01.06-.29.78.78 0 01.16-.24.75.75 0 01.82-.16.74.74 0 01.4.4.72.72 0 01.06.29.77.77 0 01-.22.53.78.78 0 01-.24.16.72.72 0 01-.29.06z"/>
        <path d="M6.14 12.75a.75.75 0 01-.53-1.28.78.78 0 01.24-.16.73.73 0 01.58 0 .78.78 0 01.24.16.75.75 0 010 1.06.63.63 0 01-.24.16.72.72 0 01-.29.06z"/>
        <path d="M6.14 17.92a.75.75 0 01-.53-.22.78.78 0 01-.16-.24.72.72 0 01-.06-.29.67.67 0 01.06-.28.72.72 0 01.16-.25.75.75 0 011.06 0 .75.75 0 01.22.53.72.72 0 01-.06.29.74.74 0 01-.4.4.72.72 0 01-.29.06z"/>
    </g>
</svg>
