<?xml version="1.0" encoding="UTF-8"?>
<svg data-bbox="0.047 0.026 23.906 23.974" viewBox="0 0 24 24" xmlns="http://www.w3.org/2000/svg" data-type="shape">
    <g>
        <path d="M12 15a.75.75 0 01-.47-.17l-11.2-9A.74.74 0 01.09 5a.75.75 0 01.71-.5h22.4a.75.75 0 01.71.5.74.74 0 01-.24.83l-11.2 9A.75.75 0 0112 15zM2.92 6L12 13.28 21.08 6z"/>
        <path d="M12.75 14.25v8.98a.75.75 0 11-1.5 0v-8.98a.75.75 0 111.5 0z"/>
        <path d="M17.22 24H6.77a.75.75 0 010-1.5h10.45a.75.75 0 010 1.5z"/>
        <path d="M15.5 6a.77.77 0 01-.5-.23.76.76 0 01-.07-1.06L18.82.28a.75.75 0 111.13 1L16.07 5.7a.76.76 0 01-.57.3z"/>
    </g>
</svg>
