<?xml version="1.0" encoding="UTF-8"?>
<svg data-bbox="0 0 103 103" viewBox="0 0 103 103" xmlns="http://www.w3.org/2000/svg" data-type="color">
    <g>
        <path d="M51.5 103A51.5 51.5 0 11103 51.5 51.55 51.55 0 0151.5 103zm0-100A48.5 48.5 0 10100 51.5 48.56 48.56 0 0051.5 3z" fill="#d2d0d1" data-color="1"/>
        <path d="M60.25 41.72h-17.5a2.42 2.42 0 01-2.43-2.42V28a2.42 2.42 0 012.43-2.42h17.5A2.42 2.42 0 0162.68 28v11.3a2.42 2.42 0 01-2.43 2.42zm-17-2.91h16.51V28.47H43.24z" fill="#d2d0d1" data-color="1"/>
        <path d="M68.81 77.44H34.19A2.42 2.42 0 0131.76 75V37.87a3.41 3.41 0 013.4-3.4h6.62v2.91h-6.62a.49.49 0 00-.49.49v36.66h33.66V37.38h-7.16v-2.91h7.64a2.43 2.43 0 012.43 2.43V75a2.42 2.42 0 01-2.43 2.44z" fill="#d2d0d1" data-color="1"/>
        <path d="M59.51 48v4.84h-16V48h16m1.94-2.92h-19.9a1 1 0 00-1 1v8.73a1 1 0 001 1h19.9a1 1 0 001-1v-8.76a1 1 0 00-1-1z" fill="#d2d0d1" data-color="1"/>
        <path d="M44.17 62.09h-2.39a1.46 1.46 0 110-2.91h2.39a1.46 1.46 0 110 2.91z" fill="#d2d0d1" data-color="1"/>
        <path d="M52.67 62.09h-2.39a1.46 1.46 0 110-2.91h2.39a1.46 1.46 0 110 2.91z" fill="#d2d0d1" data-color="1"/>
        <path d="M61.17 62.09h-2.39a1.46 1.46 0 110-2.91h2.39a1.46 1.46 0 110 2.91z" fill="#d2d0d1" data-color="1"/>
        <path d="M44.17 66.36h-2.39a1.46 1.46 0 110-2.91h2.39a1.46 1.46 0 110 2.91z" fill="#d2d0d1" data-color="1"/>
        <path d="M52.67 66.36h-2.39a1.46 1.46 0 110-2.91h2.39a1.46 1.46 0 110 2.91z" fill="#d2d0d1" data-color="1"/>
        <path d="M61.17 66.36h-2.39a1.46 1.46 0 110-2.91h2.39a1.46 1.46 0 110 2.91z" fill="#d2d0d1" data-color="1"/>
        <path d="M44.17 70.63h-2.39a1.46 1.46 0 010-2.92h2.39a1.46 1.46 0 010 2.92z" fill="#d2d0d1" data-color="1"/>
        <path d="M52.67 70.63h-2.39a1.46 1.46 0 010-2.92h2.39a1.46 1.46 0 010 2.92z" fill="#d2d0d1" data-color="1"/>
        <path d="M61.17 70.63h-2.39a1.46 1.46 0 010-2.92h2.39a1.46 1.46 0 010 2.92z" fill="#d2d0d1" data-color="1"/>
    </g>
</svg>
