<?xml version="1.0" encoding="UTF-8"?>
<svg data-bbox="0 0 103 103" viewBox="0 0 103 103" xmlns="http://www.w3.org/2000/svg" data-type="color">
    <g>
        <path d="M51.5 103A51.5 51.5 0 11103 51.5 51.55 51.55 0 0151.5 103zm0-100A48.5 48.5 0 10100 51.5 48.56 48.56 0 0051.5 3z" fill="#d2d0d1" data-color="1"/>
        <path d="M53.44 66.89a3.89 3.89 0 01-2.93-1.36L35 47.06a1.87 1.87 0 01-.18-2.28A1.82 1.82 0 0137 44.1l.15.07 14.52 7.47a1.06 1.06 0 001.09-.18l23.44-23a1.59 1.59 0 012.43 2l-22.46 35a3.4 3.4 0 01-2.62 1.36zM55 64.63zM41 49.5l11.78 14.08a1 1 0 00.69.31.44.44 0 00.32-.14l15.64-24.39L54.9 53.61a4.07 4.07 0 01-4.33.81l-.15-.07z" fill="#d2d0d1" data-color="1"/>
        <path d="M68.52 75H34.45a5.51 5.51 0 01-5.5-5.5V35.4a5.51 5.51 0 015.5-5.5h27.47a1.5 1.5 0 010 3H34.45A2.5 2.5 0 0032 35.4v34.07a2.5 2.5 0 002.5 2.5h34.02a2.51 2.51 0 002.5-2.5V52.19a1.5 1.5 0 013 0v17.28a5.51 5.51 0 01-5.5 5.53z" fill="#d2d0d1" data-color="1"/>
    </g>
</svg>
