<?xml version="1.0" encoding="UTF-8"?>
<svg data-bbox="0 0 103 103" viewBox="0 0 103 103" xmlns="http://www.w3.org/2000/svg" data-type="color">
    <g>
        <path d="M51.5 103A51.5 51.5 0 11103 51.5 51.55 51.55 0 0151.5 103zm0-100A48.5 48.5 0 10100 51.5 48.56 48.56 0 0051.5 3z" fill="#d2d0d1" data-color="1"/>
        <path d="M68 30.14a3 3 0 013 3v21.3a3 3 0 01-3 3H34.83a3 3 0 01-3-3V33.1a3 3 0 013-3H68m0-3H34.83a5.92 5.92 0 00-5.93 6v21.34a5.92 5.92 0 005.93 5.92H68a5.92 5.92 0 006-5.92V33.1a5.92 5.92 0 00-6-5.92z" fill="#d2d0d1" data-color="1"/>
        <path fill="#d2d0d1" d="M52.91 59.34v6.73h-2.96v-6.73h2.96z" data-color="1"/>
        <path d="M59.28 75.82H43.71a3.83 3.83 0 01-3-1.34 3.07 3.07 0 01-.67-2.54l1.15-6a3.61 3.61 0 013.66-2.75h13.27a3.6 3.6 0 013.66 2.75l1.16 6a3.1 3.1 0 01-.67 2.54 3.86 3.86 0 01-2.99 1.34zm-14.42-9.69a.79.79 0 00-.75.35L43 72.5v.09a.94.94 0 00.71.27h15.57a.94.94 0 00.7-.27.16.16 0 00.02-.09l-1.16-6a.79.79 0 00-.75-.35z" fill="#d2d0d1" data-color="1"/>
        <path d="M55.62 46.7a3.33 3.33 0 01-1.25 2.74 5.5 5.5 0 01-3.48 1 8.15 8.15 0 01-3.64-.78v-2.52a14.8 14.8 0 002.2.81 6.45 6.45 0 001.65.24 2.33 2.33 0 001.37-.34 1.18 1.18 0 00.48-1 1.13 1.13 0 00-.21-.67 2.31 2.31 0 00-.62-.57 17 17 0 00-1.66-.87 7.66 7.66 0 01-1.77-1.06 3.92 3.92 0 01-.93-1.18 3.67 3.67 0 01.8-4.26 4.84 4.84 0 013.19-1 7.38 7.38 0 011.9.24 13.91 13.91 0 011.9.66l-.87 2.12a13 13 0 00-1.7-.59 5.56 5.56 0 00-1.32-.17 1.76 1.76 0 00-1.19.36 1.21 1.21 0 00-.41.94 1.19 1.19 0 00.17.63 1.88 1.88 0 00.53.52c.24.16.82.46 1.72.9A6.84 6.84 0 0155 44.58a3.4 3.4 0 01.62 2.12z" fill="#d2d0d1" data-color="1"/>
        <path fill="#d2d0d1" d="M52.97 35.88v1.84h-2.96v-1.84h2.96z" data-color="1"/>
        <path fill="#d2d0d1" d="M52.97 49.82v1.84h-2.96v-1.84h2.96z" data-color="1"/>
        <path d="M72.62 75.82h-41.3a1.48 1.48 0 110-3h41.3a1.48 1.48 0 010 3z" fill="#d2d0d1" data-color="1"/>
    </g>
</svg>
