<?xml version="1.0" encoding="UTF-8"?>
<svg data-bbox="0 0 103 103" viewBox="0 0 103 103" xmlns="http://www.w3.org/2000/svg" data-type="color">
    <g>
        <path d="M51.5 103A51.5 51.5 0 11103 51.5 51.55 51.55 0 0151.5 103zm0-100A48.5 48.5 0 10100 51.5 48.56 48.56 0 0051.5 3z" fill="#d2d0d1" data-color="1"/>
        <path d="M57.37 71a2.33 2.33 0 01-1.68-.7l-3.26-3.4a1 1 0 00-.23-.09h-2.17a1.08 1.08 0 00-.21.11l-3.24 3.4a2.32 2.32 0 01-2.8.4l-5.62-3.24a2.34 2.34 0 01-1-2.63l1.33-4.53a.69.69 0 000-.16s-.28-.42-.6-1-.56-1-.56-1l-.13-.08L32.56 57a2.34 2.34 0 01-1.75-2.23v-6.52A2.34 2.34 0 0132.56 46l4.59-1.11a.7.7 0 00.2-.16l1.08-1.84a.79.79 0 000-.23l-1.33-4.51a2.34 2.34 0 011.05-2.63l5.62-3.24a2.33 2.33 0 012.8.4l3.26 3.43a.93.93 0 00.22.08h2.13a1 1 0 00.23-.11l3.24-3.41a2.35 2.35 0 012.8-.4l5.62 3.24a2.34 2.34 0 011 2.63l-1.33 4.54a.56.56 0 000 .15s.28.42.6 1 .56 1 .56 1l.12.08L69.69 46a2.34 2.34 0 011.75 2.22v6.49A2.34 2.34 0 0169.69 57l-4.6 1.11a.76.76 0 00-.17.15l-1.07 1.88a.71.71 0 000 .26l1.33 4.51a2.35 2.35 0 01-1 2.63l-5.62 3.24a2.2 2.2 0 01-1.19.22zm-.26-2.69zM50 64h2.21a3.35 3.35 0 012.19.95l3 3.15 5-2.86-1.23-4.14a3.3 3.3 0 01.27-2.37l1.08-1.91a3.3 3.3 0 011.92-1.45l4.23-1v-5.75l-4.23-1a3.16 3.16 0 01-1.92-1.53s-.19-.38-.48-.88-.52-.85-.53-.87a3.09 3.09 0 01-.36-2.43l1.23-4.17-5-2.86-3 3.15a3.3 3.3 0 01-2.19 1H50a3.25 3.25 0 01-2.2-.94l-3-3.15-5 2.87 1.23 4.17a3.25 3.25 0 01-.29 2.39l-1.09 1.86a3.33 3.33 0 01-1.92 1.43l-4.24 1v5.73l4.23 1a3.12 3.12 0 011.92 1.53s.19.38.48.88.52.85.53.86a3.18 3.18 0 01.36 2.43l-1.23 4.17 5 2.87 3-3.15A3.25 3.25 0 0150 64zm-10.24 1.62zm23-.53zM33.21 48.71z" fill="#d2d0d1" data-color="1"/>
        <path d="M51.12 58.18a6.68 6.68 0 116.69-6.68 6.69 6.69 0 01-6.69 6.68zm0-10.6A3.92 3.92 0 1055 51.5a3.92 3.92 0 00-3.88-3.92z" fill="#d2d0d1" data-color="1"/>
        <path d="M71.66 77.57a1.38 1.38 0 01-1.08-.51 1.39 1.39 0 01.2-2 31.16 31.16 0 004.34-4.33 1.38 1.38 0 012.14 1.75 34 34 0 01-4.73 4.72 1.34 1.34 0 01-.87.37z" fill="#d2d0d1" data-color="1"/>
        <path d="M68.22 72.44a1.36 1.36 0 01-1.07-.51 1.39 1.39 0 01.2-2A14.07 14.07 0 0070 67.36a1.38 1.38 0 012.12 1.78 17.29 17.29 0 01-3 3 1.39 1.39 0 01-.9.3z" fill="#d2d0d1" data-color="1"/>
        <path d="M26.81 32.73a1.3 1.3 0 01-.87-.32 1.38 1.38 0 01-.2-1.94 33.49 33.49 0 014.73-4.72 1.38 1.38 0 111.75 2.14 31.16 31.16 0 00-4.34 4.33 1.36 1.36 0 01-1.07.51z" fill="#d2d0d1" data-color="1"/>
        <path d="M31.92 36.14a1.36 1.36 0 01-.89-.33 1.38 1.38 0 01-.17-2 17.29 17.29 0 013-3A1.39 1.39 0 0135.65 33 14.07 14.07 0 0033 35.64a1.39 1.39 0 01-1.08.5z" fill="#d2d0d1" data-color="1"/>
    </g>
</svg>
