<?xml version="1.0" encoding="UTF-8"?>
<svg data-bbox="0 0 103 103" viewBox="0 0 103 103" xmlns="http://www.w3.org/2000/svg" data-type="color">
    <g>
        <path d="M51.5 103A51.5 51.5 0 11103 51.5 51.55 51.55 0 0151.5 103zm0-100A48.5 48.5 0 10100 51.5 48.56 48.56 0 0051.5 3z" fill="#d2d0d1" data-color="1"/>
        <path d="M51.5 38.63A6.62 6.62 0 1158.12 32a6.63 6.63 0 01-6.62 6.63zm0-10.24A3.62 3.62 0 1055.12 32a3.62 3.62 0 00-3.62-3.61z" fill="#d2d0d1" data-color="1"/>
        <path d="M42.79 77.61a1.47 1.47 0 01-.83-.25l-4.28-2.85a1.52 1.52 0 01-.58-1.74l6.83-19.62.07-.35v-4.5l-13.52-2.87a1.49 1.49 0 01-1.15-1.76l1.06-5.26a1.51 1.51 0 01.66-1 1.48 1.48 0 011.14-.2c.15 0 14.55 3.25 19.31 3.25s19.16-3.22 19.31-3.25a1.48 1.48 0 011.14.2 1.51 1.51 0 01.66 1l1.07 5.25a1.51 1.51 0 01-1.16 1.77L59 48.3V52a5.87 5.87 0 00.33 1.95l6.57 18.82a1.5 1.5 0 01-.59 1.74L61 77.36a1.51 1.51 0 01-1.19.21 1.49 1.49 0 01-1-.75L51.5 63.07l-7.39 13.75a1.51 1.51 0 01-1 .75 1.47 1.47 0 01-.32.04zm-2.47-5L42.25 74l7.93-14.76a1.51 1.51 0 011.32-.79 1.51 1.51 0 011.32.79L60.75 74l1.93-1.29-6.17-17.79A8.84 8.84 0 0156 52v-4.92a1.51 1.51 0 011.19-1.47l13.24-2.8L70 40.5c-3.9.85-14.29 3-18.47 3s-14.6-2.15-18.53-3l-.47 2.31 13.24 2.8A1.51 1.51 0 0147 47.08v5.85a2.29 2.29 0 010 .25l-.12.68a1 1 0 01-.06.25z" fill="#d2d0d1" data-color="1"/>
    </g>
</svg>
