<?xml version="1.0" encoding="UTF-8"?>
<svg data-bbox="0 0 103 103" viewBox="0 0 103 103" xmlns="http://www.w3.org/2000/svg" data-type="color">
    <g>
        <path d="M51.5 103A51.5 51.5 0 11103 51.5 51.55 51.55 0 0151.5 103zm0-100A48.5 48.5 0 10100 51.5 48.56 48.56 0 0051.5 3z" fill="#d2d0d1" data-color="1"/>
        <path d="M61.42 39.79H32.93a1.5 1.5 0 01-1.5-1.5v-8a1.5 1.5 0 011.5-1.5h28.49a1.5 1.5 0 011.5 1.5v8a1.5 1.5 0 01-1.5 1.5zm-27-3h25.5v-5H34.43z" fill="#d2d0d1" data-color="1"/>
        <path d="M64.73 47.86H36.25a1.5 1.5 0 01-1.5-1.5v-8a1.5 1.5 0 011.5-1.5h28.48a1.5 1.5 0 011.5 1.5v8a1.5 1.5 0 01-1.5 1.5zm-27-3h25.5v-5H37.75z" fill="#d2d0d1" data-color="1"/>
        <path d="M54.57 56H34a1.5 1.5 0 01-1.5-1.5v-8A1.5 1.5 0 0134 45h28.44a1.5 1.5 0 011.5 1.5V54a1.5 1.5 0 01-1.49 1.5h-.66a2.67 2.67 0 01-1.79-.79l-1.56-1.64-2.33 1.35a1.49 1.49 0 01-.29 1 1.52 1.52 0 01-1.25.58zm-19.11-3h17.71a2 2 0 01.79-.85l3.56-2a2.11 2.11 0 012.54.36l.88.93V48H35.46z" fill="#d2d0d1" data-color="1"/>
        <path d="M50.49 64H36.26a1.5 1.5 0 01-1.5-1.5v-8a1.5 1.5 0 011.5-1.5h18.31A1.5 1.5 0 0156 54.08l.73 2.49a2.73 2.73 0 01-.25 2l-.69 1.18a2.73 2.73 0 01-1.61 1.19l-2.2.54v1A1.5 1.5 0 0150.49 64zm-12.73-3H49v-.25a2.1 2.1 0 011.59-2l2.73-.66.49-.84-.37-1.25H37.76zm16.1-3.59z" fill="#d2d0d1" data-color="1"/>
        <path d="M54.74 72H31.25a1.5 1.5 0 01-1.5-1.5v-8a1.5 1.5 0 011.5-1.5h19.24A1.5 1.5 0 0152 62.5v1.62l2.2.54A2.58 2.58 0 0155.82 66s.12.23.29.53.3.49.31.51a2.62 2.62 0 01.31 2.06l-.55 1.88A1.51 1.51 0 0154.74 72zm-22-3h20.87l.17-.57c-.07-.11-.17-.27-.27-.45s-.19-.35-.26-.46l-2.67-.65a2.1 2.1 0 01-1.59-2V64H32.75zm21.17-.36zm-.07-.44zm-.36-.63zm-.35-.28z" fill="#d2d0d1" data-color="1"/>
        <path d="M66.39 76a2.13 2.13 0 01-1.51-.63L63 73.3h-1l-1.92 2a2.11 2.11 0 01-2.54.37l-3.56-2.06a2.1 2.1 0 01-1-2.37l.78-2.65-.28-.45-.25-.47-2.68-.64A2.1 2.1 0 0149 65v-4.1a2.09 2.09 0 011.58-2l2.73-.66.5-.85-.81-2.67a2.09 2.09 0 011-2.38l3.56-2.05a2.06 2.06 0 012.53.37l1.93 2h1l1.94-2a2.09 2.09 0 012.54-.37l3.55 2a2.1 2.1 0 011 2.38l-.78 2.64.27.46c.11.18.19.34.26.46l2.67.65a2.09 2.09 0 011.59 2V65a2.08 2.08 0 01-1.58 2l-2.72.66-.5.87.8 2.7a2.11 2.11 0 01-1 2.38l-3.56 2a2.09 2.09 0 01-1.11.39zm-3.26-2.7zm-5.29 0zm5-.08zm3.1-.07zm-4.17-2.81h1.4a2.77 2.77 0 011.84.8l1.56 1.64 2.29-1.33-.64-2.17a2.76 2.76 0 01.23-2l.69-1.2a2.68 2.68 0 011.61-1.22l2.2-.53v-2.68l-2.2-.53a2.59 2.59 0 01-1.63-1.3s-.11-.22-.29-.52-.3-.5-.31-.52a2.59 2.59 0 01-.31-2.05l.64-2.17-2.29-1.33L65 54.87a2.77 2.77 0 01-1.84.8h-1.4a2.69 2.69 0 01-1.84-.79l-1.57-1.64-2.29 1.32.64 2.18a2.68 2.68 0 01-.24 2l-.7 1.18a2.67 2.67 0 01-1.6 1.19l-2.2.54v2.65l2.2.53a2.68 2.68 0 011.63 1.3s.11.23.28.53l.32.51a2.64 2.64 0 01.31 2l-.64 2.18 2.29 1.32 1.56-1.64a2.71 2.71 0 011.84-.74zm-7.87-1.47zm17.56-1.07zm.29-.22zm-18.65-.11zm18.68-9zm-18.6-.06zm18.25-.2zM71 57.13zm-5.09-4.26zm-3.1-.07zm-5-.08z" fill="#d2d0d1" data-color="1"/>
        <path d="M62.44 67.84A4.86 4.86 0 1167.3 63a4.86 4.86 0 01-4.86 4.84zm0-6.71A1.86 1.86 0 1064.3 63a1.85 1.85 0 00-1.86-1.87z" fill="#d2d0d1" data-color="1"/>
    </g>
</svg>
